<?xml version="1.0" standalone="no"?>
<!DOCTYPE svg PUBLIC "-//W3C//DTD SVG 20010904//EN"
 "http://www.w3.org/TR/2001/REC-SVG-20010904/DTD/svg10.dtd">
<svg version="1.0" xmlns="http://www.w3.org/2000/svg"
 width="76.000000pt" height="76.000000pt" viewBox="0 0 76.000000 76.000000"
 preserveAspectRatio="xMidYMid meet">
<metadata>
Created by potrace 1.11, written by Peter Selinger 2001-2013
</metadata>
<g transform="translate(0.000000,76.000000) scale(0.100000,-0.100000)"
fill="#000000" stroke="none">
<path d="M0 380 l0 -380 380 0 380 0 0 380 0 380 -380 0 -380 0 0 -380z m629
113 c-8 -11 -57 -67 -109 -126 l-95 -107 -50 50 c-28 28 -55 50 -60 50 -5 0
-44 -34 -86 -76 -67 -67 -77 -73 -89 -59 -12 14 -2 28 83 113 l97 97 53 -53
54 -53 94 105 c79 88 96 103 108 91 11 -11 11 -16 0 -32z"/>
</g>
</svg>
